# xmcd CD database file
#
# Track frame offsets:
#	150
#	19050
#	38024
#	59307
#
# Disc length: 1006 seconds
#
# Revision: 1
# Processed by: cddbd v1.5.2PL0 Copyright (c) Steve Scherf et al.
# Submitted via: CDex 1.70beta2
#
DISCID=2803ec04
DTITLE=J. R. Blackmore - Recall The Past
DYEAR=2006
DGENRE=Rock
TTITLE0=Recall The Past
TTITLE1=Sheet Lightning
TTITLE2=Time Travelling
TTITLE3=Invisible Touch
EXTD=Target Bonus Tracks YEAR: 2006
EXTT0=
EXTT1=
EXTT2=
EXTT3=
PLAYORDER=
